<?xml version="1.0" encoding="utf-8"?>
<!-- Generator: Adobe Illustrator 18.1.0, SVG Export Plug-In . SVG Version: 6.00 Build 0)  -->
<svg version="1.1" xmlns="http://www.w3.org/2000/svg" xmlns:xlink="http://www.w3.org/1999/xlink" x="0px" y="0px"
	 viewBox="0 0 262.4 246.5" enable-background="new 0 0 262.4 246.5" xml:space="preserve">
<g id="Layer_3">
	<circle fill="#010202" cx="133.7" cy="125.5" r="115.4"/>
</g>
<g id="Layer_1">
	<path fill="#E52420" d="M77.3,70.8l12.8,0l0.1,0c-7-2.1-12.2-8.6-12.2-16.3c0-9.4,7.6-17,17-17s17,7.6,17,17c0,7.7-5,14.2-12,16.3
		l12,0c6.7,0,10.1,2.7,11.8,6.2l12.6,54c0.9,4,0,7.3-3.3,8.7c-3.2,1.4-7.3-0.1-8.5-3.7l-12.6-54l0,0.2l3,39.5l14.2,44.8l-17,0l0-0.1
		l0.1,37.2c0,2.2-2.8,4.1-6.4,4.1c-3.5,0-6.4-1.8-6.4-4l-0.1-37l0,0c0,0-8.5,0-8.5,0l0.1,38.5c0,0.8-2.9,2.6-6.4,2.7
		c-3.5,0-6.4-1.8-6.4-4l-0.1-37.2l0,0.1l-17,0l14.1-44.7l2.1-39.7l0-0.2l-10.9,52.9c-1,5-5.6,6.1-9,5.2c-3.2-0.9-4.5-3.7-3.7-7.9
		L65.6,77C67.3,73.5,70.7,70.8,77.3,70.8z"/>
</g>
<g id="Layer_2">
	<path fill="#E52420" d="M161.4,88.7h11.3l0.1,0c-6.2-1.8-10.8-7.5-10.8-14.2c0-8.2,6.8-14.8,15.1-14.8c8.3,0,15.1,6.6,15.1,14.8
		c0,6.7-4.5,12.3-10.7,14.2h10.7c5.9,0,8.9,2.3,10.4,5.4l11.1,46.9c0.8,3.4,0,6.4-2.9,7.5c-2.9,1.2-6.5-0.1-7.5-3.3l-11.1-46.9v0.1
		l2.6,34.3l12.5,38.9l-15.1,0l0-0.1l0,32.3c0,1.9-2.5,3.5-5.7,3.5c-3.1,0-5.7-1.6-5.7-3.5l0-32.2l0,0c0,0-7.6,0-7.5,0l0,33.4
		c0,0.7-2.5,2.3-5.7,2.3c-3.1,0-5.7-1.6-5.7-3.5l0-32.3l0,0.1h-15.1l12.6-38.8l1.9-34.5v-0.1l-9.7,45.9c-0.9,4.4-5,5.3-8,4.5
		c-2.8-0.8-4-3.2-3.3-6.9L151,94.1C152.5,91.1,155.5,88.7,161.4,88.7z"/>
</g>
<g id="Layer_4">
	<g>
		<circle fill="#010202" cx="-94.1" cy="279.7" r="11.2"/>
		<path fill="#E52420" d="M-99.6,274.4l1.2,0l0,0c-0.7-0.2-1.2-0.8-1.2-1.6c0-0.9,0.7-1.7,1.6-1.7c0.9,0,1.7,0.7,1.7,1.6
			c0,0.7-0.5,1.4-1.2,1.6l1.2,0c0.6,0,1,0.3,1.1,0.6l1.2,5.2c0.1,0.4,0,0.7-0.3,0.8c-0.3,0.1-0.7,0-0.8-0.4l-1.2-5.2l0,0l0.3,3.8
			l1.4,4.4l-1.7,0l0,0l0,3.6c0,0.2-0.3,0.4-0.6,0.4c-0.3,0-0.6-0.2-0.6-0.4l0-3.6l0,0l-0.8,0l0,3.7c0,0.1-0.3,0.3-0.6,0.3
			c-0.3,0-0.6-0.2-0.6-0.4l0-3.6l0,0l-1.7,0l1.4-4.3l0.2-3.9l0,0l-1.1,5.1c-0.1,0.5-0.5,0.6-0.9,0.5c-0.3-0.1-0.4-0.4-0.4-0.8
			l1.2-5.4C-100.6,274.7-100.2,274.4-99.6,274.4z"/>
		<path fill="#E52420" d="M-91.4,276.2h1.1h0c-0.6-0.2-1-0.7-1-1.4c0-0.8,0.7-1.4,1.5-1.4c0.8,0,1.5,0.6,1.5,1.4
			c0,0.7-0.4,1.2-1,1.4h1c0.6,0,0.9,0.2,1,0.5l1.1,4.6c0.1,0.3,0,0.6-0.3,0.7c-0.3,0.1-0.6,0-0.7-0.3l-1.1-4.6v0l0.3,3.3l1.2,3.8
			h-1.5l0,0l0,3.1c0,0.2-0.2,0.3-0.6,0.3s-0.6-0.2-0.6-0.3l0-3.1l0,0h-0.7l0,3.2c0,0.1-0.2,0.2-0.6,0.2s-0.6-0.2-0.6-0.3l0-3.1l0,0
			h-1.5l1.2-3.8l0.2-3.3v0l-0.9,4.5c-0.1,0.4-0.5,0.5-0.8,0.4c-0.3-0.1-0.4-0.3-0.3-0.7l1-4.7C-92.3,276.4-92,276.2-91.4,276.2z"/>
	</g>
	<rect x="-79.6" y="272.1" fill="none" width="128.5" height="22.4"/>
	<text transform="matrix(1 0 0 1 -79.5948 287.3487)" font-family="'ArialRoundedMTBold'" font-size="21">HiKlas Ltd</text>
	<path fill="none" stroke="#010202" stroke-miterlimit="10" d="M-95.4,266.1c-7,0-12.7,6.1-12.7,13.7c0,7.5,5.7,13.7,12.7,13.7H28
		v-27.3H-95.4z"/>
	<g>
		<circle fill="#010202" cx="-105" cy="218" r="11.2"/>
		<path fill="#E52420" d="M-110.5,212.6l1.2,0l0,0c-0.7-0.2-1.2-0.8-1.2-1.6c0-0.9,0.7-1.7,1.6-1.7c0.9,0,1.7,0.7,1.7,1.6
			c0,0.7-0.5,1.4-1.2,1.6l1.2,0c0.6,0,1,0.3,1.1,0.6l1.2,5.2c0.1,0.4,0,0.7-0.3,0.8c-0.3,0.1-0.7,0-0.8-0.4l-1.2-5.2l0,0l0.3,3.8
			l1.4,4.4l-1.7,0l0,0l0,3.6c0,0.2-0.3,0.4-0.6,0.4c-0.3,0-0.6-0.2-0.6-0.4l0-3.6l0,0l-0.8,0l0,3.7c0,0.1-0.3,0.3-0.6,0.3
			c-0.3,0-0.6-0.2-0.6-0.4l0-3.6l0,0l-1.7,0l1.4-4.3l0.2-3.9l0,0l-1.1,5.1c-0.1,0.5-0.5,0.6-0.9,0.5c-0.3-0.1-0.4-0.4-0.4-0.8
			l1.2-5.4C-111.5,212.9-111.2,212.6-110.5,212.6z"/>
		<path fill="#E52420" d="M-102.3,214.4h1.1h0c-0.6-0.2-1-0.7-1-1.4c0-0.8,0.7-1.4,1.5-1.4s1.5,0.6,1.5,1.4c0,0.7-0.4,1.2-1,1.4h1
			c0.6,0,0.9,0.2,1,0.5l1.1,4.6c0.1,0.3,0,0.6-0.3,0.7s-0.6,0-0.7-0.3l-1.1-4.6v0l0.3,3.3l1.2,3.8l-1.5,0l0,0l0,3.1
			c0,0.2-0.2,0.3-0.6,0.3c-0.3,0-0.6-0.2-0.6-0.3l0-3.1l0,0l-0.7,0l0,3.2c0,0.1-0.2,0.2-0.6,0.2c-0.3,0-0.6-0.2-0.6-0.3l0-3.1l0,0
			h-1.5l1.2-3.8l0.2-3.3v0l-0.9,4.5c-0.1,0.4-0.5,0.5-0.8,0.4c-0.3-0.1-0.4-0.3-0.3-0.7l1-4.7C-103.2,214.6-102.9,214.4-102.3,214.4
			z"/>
	</g>
</g>
</svg>
